<svg xmlns="http://www.w3.org/2000/svg" version="1.1" xmlns:xlink="http://www.w3.org/1999/xlink" xmlns:svgjs="http://svgjs.dev/svgjs" width="1500" height="1550" viewBox="0 0 1500 1550"><g transform="matrix(1,0,0,1,-0.7870310787526478,0.6275303643724328)"><svg viewBox="0 0 239 247" data-background-color="#faecdc" preserveAspectRatio="xMidYMid meet" height="1550" width="1500" xmlns="http://www.w3.org/2000/svg" xmlns:xlink="http://www.w3.org/1999/xlink"><g id="tight-bounds" transform="matrix(1,0,0,1,0.1254002852145959,-0.09999999999999432)"><svg viewBox="0 0 238.74919942957078 247.2" height="247.2" width="238.74919942957078"><g><svg viewBox="0 0 395.52 409.51988209217916" height="247.2" width="238.74919942957078"><g transform="matrix(1,0,0,1,0,265.8279827437322)"><svg viewBox="0 0 395.52 143.69189934844695" height="143.69189934844695" width="395.52"><g id="textblocktransform"><svg viewBox="0 0 395.52 143.69189934844695" height="143.69189934844695" width="395.52" id="textblock"><g><svg viewBox="0 0 395.52 93.04146075409058" height="93.04146075409058" width="395.52"><g transform="matrix(1,0,0,1,0,0)"><svg width="395.52" viewBox="0.7 -37.5 210.83 49.6" height="93.04146075409058" data-palette-color="#e13f2a"><path d="M4.1 0L4.1-21.05 0.7-21.05 1.2-24.5 4.1-24.5 4.1-31.05Q4.1-33.95 5.75-35.73 7.4-37.5 10.45-37.5L10.45-37.5Q12.3-37.5 13.7-36.95L13.7-36.95 13.15-33.2Q12.1-33.55 11.15-33.55L11.15-33.55Q9.85-33.55 9.15-32.73 8.45-31.9 8.45-30.4L8.45-30.4 8.45-24.5 13.85-24.5 13.85-21.05 8.45-21.05 8.45 0 4.1 0ZM30.6-24.5L34.95-24.5 34.95 0 31.25 0 30.95-3Q29.95-1.35 28.25-0.43 26.55 0.5 24.5 0.5L24.5 0.5Q20.65 0.5 18.77-2.08 16.9-4.65 16.9-9.45L16.9-9.45 16.9-24.5 21.25-24.5 21.25-10Q21.25-6.7 22.22-5.08 23.2-3.45 25.5-3.45L25.5-3.45Q27.1-3.45 28.4-4.35 29.7-5.25 30.6-6.85L30.6-6.85 30.6-24.5ZM41.2 0L41.2-24.5 44.75-24.5 45.3-20.4Q46.95-22.8 48.42-23.9 49.9-25 51.55-25L51.55-25Q52.2-25 52.7-24.85L52.7-24.85 52.25-19.9Q51.6-20.05 50.75-20.05L50.75-20.05Q49.1-20.05 47.65-19.23 46.2-18.4 45.55-17.3L45.55-17.3 45.55 0 41.2 0ZM72.49-24.5L75.89-24.5 75.89 12.1 71.54 12.1 71.54-1.7Q69.24 0.5 65.74 0.5L65.74 0.5Q60.84 0.5 58.17-3.08 55.49-6.65 55.49-12.25L55.49-12.25Q55.49-15.65 56.72-18.57 57.94-21.5 60.27-23.25 62.59-25 65.64-25L65.64-25Q67.84-25 69.42-24.33 70.99-23.65 72.19-22.25L72.19-22.25 72.49-24.5ZM66.09-3.35Q68.74-3.35 70.44-5.58 72.14-7.8 72.14-12.25L72.14-12.25Q72.14-16.55 70.44-18.82 68.74-21.1 66.09-21.1L66.09-21.1Q63.24-21.1 61.59-18.75 59.94-16.4 59.94-12.25L59.94-12.25Q59.94-8.05 61.59-5.7 63.24-3.35 66.09-3.35L66.09-3.35ZM89.19 0.5Q85.89 0.5 83.49-1.18 81.09-2.85 79.82-5.75 78.54-8.65 78.54-12.25L78.54-12.25Q78.54-15.85 79.82-18.75 81.09-21.65 83.49-23.33 85.89-25 89.19-25L89.19-25Q92.44-25 94.84-23.33 97.24-21.65 98.49-18.75 99.74-15.85 99.74-12.25L99.74-12.25Q99.74-8.65 98.49-5.75 97.24-2.85 94.84-1.18 92.44 0.5 89.19 0.5L89.19 0.5ZM89.19-3.35Q92.09-3.35 93.69-5.7 95.29-8.05 95.29-12.25L95.29-12.25Q95.29-16.45 93.69-18.78 92.09-21.1 89.19-21.1L89.19-21.1Q86.19-21.1 84.59-18.78 82.99-16.45 82.99-12.25L82.99-12.25Q82.99-8 84.59-5.68 86.19-3.35 89.19-3.35L89.19-3.35ZM114.19-25Q117.99-25 120.01-22.03 122.04-19.05 122.04-14L122.04-14 122.04 0 117.69 0 117.69-13.45Q117.69-17.35 116.56-19.23 115.44-21.1 113.19-21.1L113.19-21.1Q111.54-21.1 110.14-20.18 108.74-19.25 107.79-17.6L107.79-17.6 107.79 0 103.44 0 103.44-24.5 107.14-24.5 107.44-21.45Q108.49-23.1 110.26-24.05 112.04-25 114.19-25L114.19-25ZM143.83 0.5Q140.98 0.5 139.61-1.2 138.23-2.9 138.23-5.35L138.23-5.35 138.23-21.05 134.83-21.05 135.23-24.5 138.23-24.5 138.23-30.55 142.58-31 142.58-24.5 147.88-24.5 147.88-21.05 142.58-21.05 142.58-7.1Q142.58-4.85 143.41-3.95 144.23-3.05 146.28-3.05L146.28-3.05 147.83-3.05 147.43 0.5 143.83 0.5ZM161.83 0.5Q158.13 0.5 155.51-1.23 152.88-2.95 151.56-5.9 150.23-8.85 150.23-12.45L150.23-12.45Q150.23-15.9 151.46-18.78 152.68-21.65 155.01-23.33 157.33-25 160.53-25L160.53-25Q164.63-25 167.21-22.25 169.78-19.5 169.78-14.65L169.78-14.65Q169.78-13.8 169.58-12.3L169.58-12.3 154.68-12.3Q154.83-7.95 156.86-5.7 158.88-3.45 162.13-3.45L162.13-3.45Q163.68-3.45 165.41-3.83 167.13-4.2 168.43-4.9L168.43-4.9 168.83-1Q166.08 0.5 161.83 0.5L161.83 0.5ZM154.88-15.35L165.33-15.35Q165.33-17.85 164.11-19.43 162.88-21 160.58-21L160.58-21Q158.33-21 156.86-19.6 155.38-18.2 154.88-15.35L154.88-15.35ZM183.43 0.5Q177.83 0.5 174.93-3.03 172.03-6.55 172.03-12.1L172.03-12.1Q172.03-17.85 174.93-21.43 177.83-25 183.53-25L183.53-25Q186.58-25 188.98-23.75L188.98-23.75 188.28-19.9Q186.03-21.1 183.58-21.1L183.58-21.1Q180.23-21.1 178.35-18.78 176.48-16.45 176.48-12.3L176.48-12.3Q176.48-8.15 178.4-5.75 180.33-3.35 183.73-3.35L183.73-3.35Q186.33-3.35 188.33-4.55L188.33-4.55 188.93-0.65Q187.93-0.15 186.43 0.18 184.93 0.5 183.43 0.5L183.43 0.5ZM203.68-25Q207.48-25 209.5-22.03 211.53-19.05 211.53-14L211.53-14 211.53 0 207.18 0 207.18-13.45Q207.18-17.35 206.08-19.18 204.98-21 202.68-21L202.68-21Q200.98-21 199.6-20.08 198.23-19.15 197.28-17.5L197.28-17.5 197.28 0 192.93 0 192.93-37.5 197.28-37.5 197.28-21.9Q198.33-23.35 200.03-24.18 201.73-25 203.68-25L203.68-25Z" opacity="1" transform="matrix(1,0,0,1,0,0)" fill="#e13f2a" class="wordmark-text-0" data-fill-palette-color="primary" id="text-0"></path></svg></g></svg></g><g transform="matrix(1,0,0,1,75.54432000000001,115.00631664307326)"><svg viewBox="0 0 244.43135999999996 28.68558270537368" height="28.68558270537368" width="244.43135999999996"><g transform="matrix(1,0,0,1,0,0)"><svg width="244.43135999999996" viewBox="1.75 -35.5 404.7 47.5" height="28.68558270537368" data-palette-color="#e13f2a"><path d="M5.15-5.4L5.15-5.4 5.15-22 1.75-22 1.75-25 5.2-25 5.2-32.15 8.95-32.15 8.95-25 15.05-25 15.05-22 8.9-22 8.9-6.1Q8.9-2.75 12.3-2.75L12.3-2.75Q13.1-2.75 14.75-3.05L14.75-3.05 15.3-0.35Q13.25 0.3 11.08 0.3 8.9 0.3 7.03-1.03 5.15-2.35 5.15-5.4ZM37.3-12.33Q37.3-17.15 35.4-19.7 33.5-22.25 29.85-22.25 26.2-22.25 24.67-19.83 23.15-17.4 23.15-12.4L23.15-12.4Q23.15-2.95 30.1-2.95L30.1-2.95Q33.75-2.95 35.52-5.23 37.3-7.5 37.3-12.33ZM38.2-3.1Q35.35 0.3 30.15 0.3 24.95 0.3 22.17-3.08 19.4-6.45 19.4-12.53 19.4-18.6 22.07-22.05 24.75-25.5 29.92-25.5 35.1-25.5 38.07-22 41.05-18.5 41.05-12.5 41.05-6.5 38.2-3.1ZM60.84-5.4L60.84-5.4 60.84-22 57.44-22 57.44-25 60.89-25 60.89-32.15 64.64-32.15 64.64-25 70.74-25 70.74-22 64.59-22 64.59-6.1Q64.59-2.75 67.99-2.75L67.99-2.75Q68.79-2.75 70.44-3.05L70.44-3.05 70.99-0.35Q68.94 0.3 66.77 0.3 64.59 0.3 62.72-1.03 60.84-2.35 60.84-5.4ZM96.24-17.55L96.24 0 92.49 0 92.49-16.45Q92.49-22.5 87.44-22.5L87.44-22.5Q83.69-22.5 81.29-20.1L81.29-20.1 81.29 0 77.54 0 77.54-35 81.24-35 81.24-23.15Q82.34-24.05 82.97-24.45 83.59-24.85 85.02-25.25 86.44-25.65 88.24-25.65L88.24-25.65Q91.69-25.65 93.97-23.55 96.24-21.45 96.24-17.55L96.24-17.55ZM122.69-11.7L122.69-11.7 106.74-11.7Q106.74-6.9 109.01-4.9 111.29-2.9 114.74-2.9L114.74-2.9Q116.49-2.9 117.19-3.08 117.89-3.25 118.51-3.43 119.14-3.6 119.39-3.7L119.39-3.7Q120.64-4.05 121.54-4.35L121.54-4.35 122.14-1.45Q117.14 0.3 114.34 0.3L114.34 0.3Q109.19 0.3 106.09-2.83 102.99-5.95 102.99-12.23 102.99-18.5 105.91-22 108.84-25.5 113.31-25.5 117.79-25.5 120.29-22.6 122.79-19.7 122.79-14.75L122.79-14.75Q122.79-13.4 122.69-11.7ZM106.99-14.55L106.99-14.55 119.19-14.55Q119.19-18.25 117.89-20.25 116.59-22.25 113.36-22.25 110.14-22.25 108.64-20.1 107.14-17.95 106.99-14.55ZM142.28 0L142.28-35 146.03-35 146.03-22.5Q150.33-25.55 153.73-25.55L153.73-25.55Q162.73-25.55 162.73-12.6L162.73-12.6Q162.73-5.25 159.53-2.3L159.53-2.3Q156.68 0.3 152.83 0.3L152.83 0.3Q150.88 0.3 148.88-0.58 146.88-1.45 145.58-2.45L145.58-2.45 144.48 0 142.28 0ZM146.03-18.95L146.03-18.95 146.03-5.35Q147.03-4.2 148.71-3.55 150.38-2.9 151.98-2.9L151.98-2.9Q155.88-2.9 157.43-5.2 158.98-7.5 158.98-12.4 158.98-17.3 157.43-19.8 155.88-22.3 153.48-22.3L153.48-22.3Q149.88-22.3 146.03-18.95ZM173.33-19.1L173.33-19.1 173.33 0 169.58 0 169.58-25 171.98-25 172.58-22.05Q174.98-23.95 176.58-24.73 178.18-25.5 180.23-25.5L180.23-25.5Q181.23-25.5 181.73-25.4L181.73-25.4 182.43-25.2 181.83-21.75Q180.93-22.05 179.38-22.05L179.38-22.05Q176.38-22.05 173.33-19.1ZM191.18 0L187.43 0 187.43-25 191.18-25 191.18 0ZM187.43-35L191.18-35 191.18-30.55 187.43-30.55 187.43-35ZM213.73 1.7L213.73-2.65Q209.53 0.35 206.08 0.35L206.08 0.35Q197.08 0.35 197.08-12.6L197.08-12.6Q197.08-19.95 200.28-22.9L200.28-22.9Q203.13-25.5 207.2-25.5 211.28-25.5 214.03-21.8L214.03-21.8 215.33-25.05 217.53-25.05 217.53 1.25Q217.53 6.7 214.83 9.35 212.13 12 207.53 12L207.53 12Q205.18 12 203.33 11.4 201.48 10.8 199.48 10.05L199.48 10.05 200.18 7.4Q204.38 8.75 207.2 8.75 210.03 8.75 211.88 7 213.73 5.25 213.73 1.7L213.73 1.7ZM213.73-6.25L213.73-6.25 213.73-15.6Q213.73-18.55 211.78-20.4 209.83-22.25 207.78-22.25L207.78-22.25Q203.88-22.25 202.33-19.98 200.78-17.7 200.78-12.7L200.78-12.7Q200.78-2.9 206.28-2.9L206.28-2.9Q209.88-2.9 213.73-6.25ZM245.32-17.55L245.32 0 241.57 0 241.57-16.45Q241.57-22.5 236.52-22.5L236.52-22.5Q232.77-22.5 230.37-20.1L230.37-20.1 230.37 0 226.62 0 226.62-35 230.32-35 230.32-23.15Q231.42-24.05 232.05-24.45 232.67-24.85 234.1-25.25 235.52-25.65 237.32-25.65L237.32-25.65Q240.77-25.65 243.05-23.55 245.32-21.45 245.32-17.55L245.32-17.55ZM255.02-5.4L255.02-5.4 255.02-22 251.62-22 251.62-25 255.07-25 255.07-32.15 258.82-32.15 258.82-25 264.92-25 264.92-22 258.77-22 258.77-6.1Q258.77-2.75 262.17-2.75L262.17-2.75Q262.97-2.75 264.62-3.05L264.62-3.05 265.17-0.35Q263.12 0.3 260.95 0.3 258.77 0.3 256.9-1.03 255.02-2.35 255.02-5.4ZM281.42-25L285.32-25 285.32-29.8Q285.32-32.85 287.19-34.18 289.07-35.5 291.24-35.5 293.42-35.5 295.47-34.85L295.47-34.85 294.92-32.15Q293.27-32.45 292.47-32.45L292.47-32.45Q289.02-32.45 289.02-29.1L289.02-29.1 289.02-25 294.12-25 294.12-22 289.02-22 289.02 0 285.27 0 285.27-22 281.42-22 281.42-25ZM313.06-6.35L313.06-6.35 313.06-25 316.86-25 316.86 0 314.66 0 313.41-2.95Q309.41 0.3 305.76 0.3 302.11 0.3 300.19-1.83 298.26-3.95 298.26-7.85L298.26-7.85 298.26-25 302.01-25 302.01-8.45Q302.01-5.5 302.89-4.2 303.76-2.9 305.79-2.9 307.81-2.9 309.91-4 312.01-5.1 313.06-6.35ZM326.56-5.4L326.56-5.4 326.56-22 323.16-22 323.16-25 326.61-25 326.61-32.15 330.36-32.15 330.36-25 336.46-25 336.46-22 330.31-22 330.31-6.1Q330.31-2.75 333.71-2.75L333.71-2.75Q334.51-2.75 336.16-3.05L336.16-3.05 336.71-0.35Q334.66 0.3 332.49 0.3 330.31 0.3 328.44-1.03 326.56-2.35 326.56-5.4ZM357.56-6.35L357.56-6.35 357.56-25 361.36-25 361.36 0 359.16 0 357.91-2.95Q353.91 0.3 350.26 0.3 346.61 0.3 344.68-1.83 342.76-3.95 342.76-7.85L342.76-7.85 342.76-25 346.51-25 346.51-8.45Q346.51-5.5 347.38-4.2 348.26-2.9 350.28-2.9 352.31-2.9 354.41-4 356.51-5.1 357.56-6.35ZM374.21-19.1L374.21-19.1 374.21 0 370.46 0 370.46-25 372.86-25 373.46-22.05Q375.86-23.95 377.46-24.73 379.06-25.5 381.11-25.5L381.11-25.5Q382.11-25.5 382.61-25.4L382.61-25.4 383.31-25.2 382.71-21.75Q381.81-22.05 380.26-22.05L380.26-22.05Q377.26-22.05 374.21-19.1ZM406.35-11.7L406.35-11.7 390.4-11.7Q390.4-6.9 392.68-4.9 394.95-2.9 398.4-2.9L398.4-2.9Q400.15-2.9 400.85-3.08 401.55-3.25 402.18-3.43 402.8-3.6 403.05-3.7L403.05-3.7Q404.3-4.05 405.2-4.35L405.2-4.35 405.8-1.45Q400.8 0.3 398 0.3L398 0.3Q392.85 0.3 389.75-2.83 386.65-5.95 386.65-12.23 386.65-18.5 389.58-22 392.5-25.5 396.98-25.5 401.45-25.5 403.95-22.6 406.45-19.7 406.45-14.75L406.45-14.75Q406.45-13.4 406.35-11.7ZM390.65-14.55L390.65-14.55 402.85-14.55Q402.85-18.25 401.55-20.25 400.25-22.25 397.03-22.25 393.8-22.25 392.3-20.1 390.8-17.95 390.65-14.55Z" opacity="1" transform="matrix(1,0,0,1,0,0)" fill="#e13f2a" class="slogan-text-1" data-fill-palette-color="secondary" id="text-1"></path></svg></g></svg></g></svg></g></svg></g><g transform="matrix(1,0,0,1,86.81086451711657,0)"><svg viewBox="0 0 221.89827096576684 221.89827096576684" height="221.89827096576684" width="221.89827096576684"><g><svg></svg></g><g id="icon-0"><svg viewBox="0 0 221.89827096576684 221.89827096576684" height="221.89827096576684" width="221.89827096576684"><g><path d="M0 110.949c0-61.276 49.674-110.949 110.949-110.949 61.276 0 110.949 49.674 110.949 110.949 0 61.276-49.674 110.949-110.949 110.949-61.276 0-110.949-49.674-110.949-110.949zM110.949 213.508c56.642 0 102.559-45.917 102.559-102.559 0-56.642-45.917-102.559-102.559-102.558-56.642 0-102.559 45.917-102.558 102.558 0 56.642 45.917 102.559 102.558 102.559z" data-fill-palette-color="accent" fill="#de6342" stroke="transparent"></path></g><g transform="matrix(1,0,0,1,51.7294439618614,51.714460689581536)"><svg viewBox="0 0 118.43938304204404 118.46934958660377" height="118.46934958660377" width="118.43938304204404"><g><svg xmlns="http://www.w3.org/2000/svg" xmlns:xlink="http://www.w3.org/1999/xlink" version="1.1" x="0" y="0" viewBox="5.6665039 5.6572266 36.667480499999996 36.6767578" style="enable-background:new 0 0 48 48;" xml:space="preserve" height="118.46934958660377" width="118.43938304204404" class="icon-cg-0" data-fill-palette-color="accent" id="cg-0"><path d="M42.334 24c0 10.109-8.225 18.334-18.334 18.334C13.891 42.334 5.667 34.109 5.667 24 5.667 13.891 13.892 5.666 24 5.666c4.135 0 8.051 1.373 11.257 3.88V6.657c0-0.552 0.447-1 1-1s1 0.448 1 1v5.086c0 0.13-0.026 0.26-0.077 0.382-0.102 0.245-0.296 0.439-0.541 0.541-0.122 0.051-0.252 0.077-0.382 0.077h-5.086c-0.553 0-1-0.448-1-1s0.447-1 1-1h2.347C30.76 8.754 27.467 7.666 24 7.666 14.994 7.666 7.667 14.994 7.667 24c0 9.007 7.327 16.334 16.333 16.334 9.007 0 16.334-7.327 16.334-16.334 0-0.552 0.447-1 1-1S42.334 23.448 42.334 24zM25 23V11c0-0.552-0.447-1-1-1s-1 0.448-1 1v13c0 0.552 0.448 1 1 1h12.991c0.553 0 1-0.448 1-1s-0.447-1-1-1H25zM23.29 35.29C23.11 35.479 23 35.729 23 36c0 0.26 0.11 0.52 0.29 0.71C23.48 36.89 23.74 37 24 37c0.27 0 0.52-0.11 0.71-0.29C24.89 36.52 25 36.26 25 36s-0.11-0.521-0.29-0.71C24.34 34.92 23.67 34.92 23.29 35.29zM11.29 23.29C11.11 23.48 11 23.74 11 24c0 0.26 0.11 0.52 0.29 0.71C11.48 24.89 11.74 25 12 25c0.26 0 0.52-0.11 0.71-0.29C12.89 24.52 13 24.26 13 24c0-0.26-0.11-0.52-0.29-0.71C12.33 22.92 11.67 22.92 11.29 23.29z" fill="#de6342" data-fill-palette-color="accent"></path></svg></g></svg></g></svg></g></svg></g><g></g></svg></g><defs></defs></svg><rect width="238.74919942957078" height="247.2" fill="none" stroke="none" visibility="hidden"></rect></g></svg></g></svg>